<svg xmlns="http://www.w3.org/2000/svg" viewBox="0 0 320 70" width="100%" height="100%">
  <!-- Tooth Icon on the left -->
  <path d="M 22 25 C 23 17, 26 11, 31 11 C 36 11, 39 16, 42 20 C 45 16, 48 11, 53 11 C 58 11, 61 17, 62 25 C 63 32, 61 38, 59 43 C 57 47, 55 51, 55 54 C 52 50, 49 46, 47 43 C 44 40, 41 40, 39 43 C 36 46, 33 50, 31 54 C 31 51, 29 47, 27 43 C 24 38, 22 32, 22 25 Z" 
        fill="none" stroke="#B59A57" stroke-width="2" stroke-linejoin="round" stroke-linecap="round"/>
  
  <!-- Vertical Divider Line -->
  <line x1="72" y1="14" x2="72" y2="52" stroke="#B59A57" stroke-width="1.2"/>
  
  <!-- Text on the right -->
  <text x="84" y="32" font-family="'Sora', 'Montserrat', 'Inter', 'Helvetica Neue', sans-serif" font-size="14.5" font-weight="700" letter-spacing="0.5" fill="currentColor">THE BEVERLY HILLS CENTER</text>
  <text x="84" y="47" font-family="'Sora', 'Montserrat', 'Inter', 'Helvetica Neue', sans-serif" font-size="6.8" font-weight="600" letter-spacing="0.8" fill="currentColor">FOR AESTHETIC &amp; RESTORATIVE DENTISTRY</text>
</svg>
